<?xml version="1.0" encoding="UTF-8" standalone="no"?>
<!-- Created with Inkscape (http://www.inkscape.org/) -->

<svg
   width="200mm"
   height="50mm"
   viewBox="0 0 200 50"
   version="1.1"
   id="svg1"
   sodipodi:docname="logo.svg"
   inkscape:version="1.3.2 (091e20e, 2023-11-25, custom)"
   xmlns:inkscape="http://www.inkscape.org/namespaces/inkscape"
   xmlns:sodipodi="http://sodipodi.sourceforge.net/DTD/sodipodi-0.dtd"
   xmlns="http://www.w3.org/2000/svg"
   xmlns:svg="http://www.w3.org/2000/svg">
  <sodipodi:namedview
     id="namedview1"
     pagecolor="#ffffff"
     bordercolor="#000000"
     borderopacity="0.25"
     inkscape:showpageshadow="2"
     inkscape:pageopacity="0.0"
     inkscape:pagecheckerboard="0"
     inkscape:deskcolor="#d1d1d1"
     inkscape:document-units="mm"
     inkscape:zoom="0.7011013"
     inkscape:cx="101.26925"
     inkscape:cy="425.04557"
     inkscape:window-width="1920"
     inkscape:window-height="1001"
     inkscape:window-x="-9"
     inkscape:window-y="-9"
     inkscape:window-maximized="1"
     inkscape:current-layer="layer3" />
  <defs
     id="defs1">
    <rect
       x="93.154922"
       y="361.99054"
       width="646.44165"
       height="170.05368"
       id="rect2" />
    <rect
       x="78.124336"
       y="293.21881"
       width="616.00159"
       height="206.54247"
       id="rect1" />
  </defs>
  <g
     inkscape:label="username"
     inkscape:groupmode="layer"
     id="layer1" />
  <g
     inkscape:groupmode="layer"
     id="layer2"
     inkscape:label="bird" />
  <g
     inkscape:groupmode="layer"
     id="layer3"
     inkscape:label="horns">
    <g
       id="g1"
       transform="translate(-3.0190597,-103.78018)">
      <path
         d="m 59.028931,123.60555 q -0.124023,0.0248 -0.248047,0.0248 -0.930176,0 -1.513086,-0.66973 -0.58291,-0.66973 -0.58291,-1.52549 0,-0.86816 0.706934,-1.47588 0.706933,-0.60771 1.599902,-0.65732 0.04961,0 0.111621,0 0.930176,0 1.513086,0.62012 0.595313,0.60771 0.595313,1.48828 0,0.86816 -0.607715,1.48828 -0.595313,0.60771 -1.575098,0.70693 z m 4.750098,14.06426 q -0.434082,0 -4.402832,0.062 -3.956348,0.0744 -5.159375,0.0744 -0.657324,0 -0.954981,-0.35967 -0.297656,-0.34727 -0.297656,-0.88057 0,-0.0124 0,-0.0496 0,-0.0372 0,-0.0496 0,-1.25263 1.277442,-1.25263 h 3.745507 q 0,-0.97979 -0.0248,-1.71153 -0.02481,-0.81855 -0.02481,-1.6247 0,-1.16582 0.124023,-4.48965 -0.235644,-0.0248 -0.520898,-0.0248 -0.08682,0 -1.128613,0.0248 -1.041797,0.0124 -1.327051,0.0124 -0.558106,0 -0.880567,-0.32246 -0.32246,-0.33486 -0.32246,-0.78135 0,-0.0124 0,-0.0372 0,-0.0248 0,-0.0372 0,-0.5085 0.297656,-0.84336 0.310058,-0.34727 0.868164,-0.34727 1.860351,-0.14883 3.348633,-0.14883 0.446484,0 0.95498,0.0124 0.0124,0 0.02481,0 0.0124,0 0.0124,0 0.409277,0 0.719336,0.18603 0.310059,0.18604 0.458887,0.47129 0.148828,0.27285 0.21084,0.5209 0.07441,0.23564 0.07441,0.43408 -0.161231,1.99678 -0.161231,3.96875 0,1.66192 0.161231,4.7377 h 2.988964 q 1.227832,0 1.227832,1.20302 -0.0248,0.37207 -0.148828,0.63252 -0.124023,0.26045 -0.322461,0.38448 -0.198437,0.13642 -0.396875,0.18603 -0.198437,0.0496 -0.421679,0.0496 z m 8.35918,0.38447 q -1.277442,-0.0248 -2.344043,-0.58291 -1.066602,-0.5581 -1.773535,-1.47588 -0.694532,-0.93017 -1.079004,-2.10839 -0.384473,-1.19063 -0.384473,-2.48047 0,-0.0124 0,-0.062 0,-0.0496 0,-0.062 0,-1.52548 0.409277,-2.82773 0.42168,-1.30225 1.203028,-2.28203 0.781347,-0.97979 1.996777,-1.52549 1.21543,-0.55811 2.728516,-0.55811 0.905371,0 1.711523,0.23565 0.818555,0.22324 1.562695,0.74414 0.744141,0.5085 1.277442,1.28984 0.545703,0.76895 0.868164,1.92237 0.322461,1.15341 0.322461,2.57968 0,0.42168 -0.02481,0.83096 -0.09922,1.52549 -0.508496,2.67891 -0.396875,1.15341 -1.153418,1.99677 -0.744141,0.83096 -1.922363,1.25264 -1.165821,0.43408 -2.753321,0.43408 -0.08682,0 -0.136425,0 z m 0.545703,-2.54248 q 0.08682,0 0.148828,0 0.892969,0 1.525488,-0.5581 0.63252,-0.55811 0.942578,-1.50069 0.310059,-0.94257 0.359668,-2.20761 0.0124,-0.22325 0.0124,-0.47129 0,-4.30362 -3.125391,-4.30362 -0.58291,0 -1.054199,0.22325 -0.458887,0.21084 -0.768945,0.60771 -0.297657,0.38447 -0.520899,0.84336 -0.223242,0.45889 -0.359668,1.0294 -0.124023,0.5705 -0.186035,1.05419 -0.06201,0.47129 -0.09922,1.00459 0,0.12403 0,0.40928 0,0.69453 0.07441,1.24024 0.08682,0.5333 0.297657,1.02939 0.210839,0.49609 0.558105,0.83096 0.347266,0.32246 0.905371,0.5333 0.558106,0.19844 1.289844,0.23564 z m 14.027051,-11.90625 q -0.124024,0.0248 -0.248047,0.0248 -0.930176,0 -1.513086,-0.66973 -0.58291,-0.66973 -0.58291,-1.52549 0,-0.86816 0.706933,-1.47588 0.706934,-0.60771 1.599903,-0.65732 0.04961,0 0.111621,0 0.930176,0 1.513086,0.62012 0.595312,0.60771 0.595312,1.48828 0,0.86816 -0.607715,1.48828 -0.595312,0.60771 -1.575097,0.70693 z m 4.750097,14.06426 q -0.434082,0 -4.402832,0.062 -3.956347,0.0744 -5.159375,0.0744 -0.657324,0 -0.95498,-0.35967 -0.297656,-0.34727 -0.297656,-0.88057 0,-0.0124 0,-0.0496 0,-0.0372 0,-0.0496 0,-1.25263 1.277441,-1.25263 h 3.745508 q 0,-0.97979 -0.02481,-1.71153 -0.0248,-0.81855 -0.0248,-1.6247 0,-1.16582 0.124023,-4.48965 -0.235645,-0.0248 -0.520898,-0.0248 -0.08682,0 -1.128614,0.0248 -1.041797,0.0124 -1.32705,0.0124 -0.558106,0 -0.880567,-0.32246 -0.322461,-0.33486 -0.322461,-0.78135 0,-0.0124 0,-0.0372 0,-0.0248 0,-0.0372 0,-0.5085 0.297656,-0.84336 0.310059,-0.34727 0.868164,-0.34727 1.860352,-0.14883 3.348633,-0.14883 0.446485,0 0.954981,0.0124 0.0124,0 0.0248,0 0.0124,0 0.0124,0 0.409277,0 0.719336,0.18603 0.310058,0.18604 0.458886,0.47129 0.148828,0.27285 0.21084,0.5209 0.07441,0.23564 0.07441,0.43408 -0.16123,1.99678 -0.16123,3.96875 0,1.66192 0.16123,4.7377 h 2.988965 q 1.227832,0 1.227832,1.20302 -0.02481,0.37207 -0.148828,0.63252 -0.124023,0.26045 -0.322461,0.38448 -0.198437,0.13642 -0.396875,0.18603 -0.198437,0.0496 -0.42168,0.0496 z m 6.238383,-1.20303 q 0,0.74414 -0.40928,1.10381 -0.39687,0.37207 -1.02939,0.37207 -0.0372,0 -0.16123,0 -0.520903,-0.0248 -0.892974,-0.38447 -0.359668,-0.34727 -0.409277,-1.09141 0,-0.16123 -0.124023,-1.16582 -0.111621,-1.01699 -0.136426,-1.73633 -0.02481,-0.45888 -0.02481,-1.02939 0,-1.36426 0.161231,-3.63389 0.16123,-2.26963 0.186035,-2.96416 0.0124,-0.80615 0.483691,-1.21543 0.483693,-0.42168 1.116213,-0.42168 0.0124,0 0.0372,0 0.0248,0 0.0248,0 0.58291,0 0.95498,0.34727 0.37207,0.33486 0.37207,1.0666 0,0.12402 -0.0124,0.27285 l -0.0124,0.14883 q 0.68213,-0.76894 1.69912,-1.24023 1.029397,-0.48369 2.381247,-0.48369 1.84795,0 2.79053,1.31464 0.95498,1.30225 1.01699,3.62149 0.0496,1.48828 0.38448,3.81992 0.33486,2.33164 0.38447,3.08818 0,0.0744 0,0.16123 0,0.79375 -0.37207,1.15342 -0.35967,0.37207 -0.91778,0.37207 -0.0124,0 -0.0372,0 -0.0124,0 -0.0248,0 -0.60771,0 -1.0666,-0.40928 -0.44648,-0.39687 -0.5085,-1.24023 -0.0248,-0.21084 -0.27285,-2.31924 -0.23564,-2.1084 -0.29765,-3.44785 -0.0496,-0.85576 -0.11162,-1.40146 -0.0496,-0.54571 -0.14883,-0.95498 -0.0992,-0.40928 -0.26045,-0.60772 -0.16123,-0.21084 -0.37207,-0.29766 -0.21084,-0.0868 -0.54571,-0.0868 -0.73174,0 -1.40146,0.27285 -0.669727,0.26045 -1.178217,0.71934 -0.5085,0.44648 -0.86817,0.91777 -0.35967,0.45889 -0.64492,0.97978 -0.062,0.97979 -0.062,1.83555 0,0.12402 0,0.35967 0.0124,0.23564 0.0124,0.34726 0,0.84336 0.14883,2.15801 0.14883,1.31465 0.14883,1.69912 z m -0.68213,-5.37021 z m 21.542867,6.47402 q -1.32705,0.5085 -3.1502,0.5085 -0.18603,0 -0.32246,0 -0.99218,-0.0372 -1.86035,-0.34727 -0.86816,-0.29765 -1.53789,-0.85576 -0.65732,-0.57051 -1.0666,-1.43867 -0.39688,-0.86817 -0.42168,-1.94717 -0.0248,-0.66973 -0.0248,-1.20303 0,-1.55029 0.24804,-4.7873 h -1.02939 q -0.54571,0 -0.90537,-0.27285 -0.35967,-0.27285 -0.35967,-0.93018 0,-0.0248 0,-0.0496 0,-0.0372 0,-0.062 0.0124,-1.28984 1.28984,-1.28984 0.81856,0 1.33946,0.0372 l -0.21084,0.18604 q 0.0372,-0.55811 0.0372,-1.12861 0,-1.26504 -0.13642,-2.67891 -0.0124,-0.0744 -0.0124,-0.12402 0,-0.43409 0.29766,-0.83096 0.29766,-0.39688 0.80615,-0.39688 0.5085,0 1.10381,0.35967 0.59531,0.35967 0.66973,0.81856 0.0496,0.50849 0.0496,1.47588 0,0.74414 -0.0496,2.30683 0.78135,0.0124 1.92236,0.0496 1.15342,0.0372 1.86035,0.062 0.70694,0.0124 0.99219,0.0124 0.5457,0 0.91777,0.29766 0.37207,0.28525 0.37207,0.97979 -0.0744,1.1038 -1.28984,1.1038 -0.68213,0 -4.86172,-0.0496 -0.19844,4.42763 -0.19844,5.24619 0,0.34726 0.0124,0.5581 0.062,1.0294 0.69453,1.66192 0.64492,0.63252 1.74873,0.66972 0.0992,0 0.21084,0 1.43867,0 2.72851,-0.5581 0.18604,-0.0868 0.38448,-0.0868 0.33486,0 0.60771,0.24805 0.28526,0.24804 0.38447,0.74414 0.0248,0.11162 0.0248,0.23564 0,0.4961 -0.38447,0.89297 -0.37207,0.39688 -0.88057,0.58291 z m 15.3665,-1.37666 q 0,0.81856 -0.44648,1.27744 -0.43408,0.47129 -1.0418,0.47129 -0.0248,0 -0.062,0 -0.55811,-0.0248 -1.02939,-0.45888 -0.45889,-0.42168 -0.45889,-1.06661 0,-0.75654 0.0372,-2.45566 0.0496,-1.71152 0.0496,-2.71611 0,-0.37207 0,-0.71934 -0.0124,-0.62012 -0.0744,-1.14102 -0.062,-0.5333 -0.21084,-1.04179 -0.13642,-0.5085 -0.42168,-0.79375 -0.28525,-0.29766 -0.66972,-0.29766 -0.73174,0.0124 -1.35186,0.24805 -0.60772,0.22324 -1.01699,0.58291 -0.39688,0.34726 -0.71934,0.80615 -0.31006,0.44649 -0.49609,0.88057 -0.17364,0.42168 -0.28526,0.84336 -0.11162,0.42168 -0.14882,0.66972 -0.0248,0.24805 -0.0248,0.35967 h -0.39687 v -0.0248 h 0.39687 q 0,0.16123 -0.0124,0.49609 -0.0124,0.32246 -0.0124,0.48369 -0.0124,0.42168 -0.0124,1.15342 0,0.71934 -0.0124,1.079 0,0.35967 -0.0372,0.86817 -0.0248,0.49609 -0.0744,0.91777 -0.0744,0.59531 -0.5581,0.94258 -0.4837,0.35967 -1.07901,0.35967 -0.0124,0 -0.0372,0 -0.0124,0 -0.0248,0 -0.55811,0 -0.94258,-0.34727 -0.37207,-0.34726 -0.37207,-0.95498 0,-0.062 0,-0.17363 0.062,-0.80615 0.17363,-3.10059 0.11162,-2.29443 0.11162,-3.49746 0,-0.31006 -0.0124,-0.45889 -0.0992,-2.23242 -0.0992,-5.56865 0,-2.60449 0.0496,-4.37802 0.0124,-0.76895 0.43409,-1.16582 0.42167,-0.40928 1.00459,-0.40928 0.0124,0 0.0372,0 0.0248,0 0.0372,0 0.63252,0 1.02939,0.38447 0.40928,0.38447 0.40928,1.11621 0,2.23242 0.0496,7.21817 0.69453,-0.94258 1.88516,-1.52549 1.20302,-0.59532 2.93935,-0.59532 0.71934,0 1.27744,0.26045 0.55811,0.26045 0.91778,0.70694 0.37207,0.43408 0.60771,1.0542 0.24805,0.60771 0.34727,1.28984 0.0992,0.66973 0.0992,1.45107 0,0.062 0,0.13643 0,0.18604 0,0.37207 0,1.33945 0.12402,3.47266 0.12402,2.1332 0.12402,2.98896 z m 13.65499,-0.42168 q -0.38448,0.5333 -0.81856,0.91778 -0.43408,0.38447 -1.0914,0.71933 -0.65733,0.33486 -1.59991,0.49609 -0.94257,0.17364 -2.18281,0.17364 -0.13643,0 -0.28525,0 -2.57969,-0.0372 -4.04317,-1.78594 -1.45107,-1.74873 -1.45107,-4.79971 0,-0.0992 0.0124,-0.16123 0.0248,-1.68672 0.5457,-3.05097 0.5209,-1.37666 1.42627,-2.26963 0.90537,-0.90537 2.1084,-1.38907 1.21543,-0.48369 2.6293,-0.48369 0.84336,0 1.81074,0.44649 0.97979,0.43408 1.82315,1.24023 0.84335,0.80615 1.17822,1.74873 v 0.0124 0.0124 q 0.0372,0.14883 0.0372,0.29765 0,0.63252 -0.47129,1.30225 -0.47129,0.65732 -0.96739,1.01699 -0.47129,0.33487 -1.14101,0.66973 -0.65733,0.33486 -1.61231,0.70693 -0.94258,0.35967 -1.46347,0.55811 -0.5209,0.18603 -1.67432,0.58291 -1.15342,0.38447 -1.26504,0.42168 0.22324,1.15342 0.85576,1.78593 0.64492,0.63252 1.81074,0.66973 0.0868,0.0124 0.17364,0.0124 0.62011,0 1.22783,-0.18603 0.60771,-0.19844 1.01699,-0.45889 0.42168,-0.26045 0.66973,-0.45888 0.26045,-0.21084 0.33486,-0.32247 0.71934,-0.95498 1.45108,-0.95498 0.39687,0 0.78134,0.26045 0.64493,0.44649 0.64493,1.09141 0,0.5333 -0.47129,1.17822 z m -5.2834,-9.25215 q -0.39688,0 -0.80615,0.13643 -0.39688,0.12402 -0.81856,0.43408 -0.40928,0.31006 -0.75654,0.76895 -0.33487,0.44648 -0.58291,1.14101 -0.24805,0.69453 -0.32246,1.5503 4.35322,-1.10381 5.69267,-2.20762 -0.5333,-1.01699 -1.11621,-1.41387 -0.57051,-0.40928 -1.28984,-0.40928 z m 7.71425,9.01651 q -0.11162,-0.43408 -0.11162,-0.79375 0,-0.94258 0.76895,-1.30225 0.32246,-0.16123 0.71933,-0.16123 0.48369,0 0.90537,0.27285 0.42168,0.27285 0.65733,0.83096 0.13642,0.33486 0.21084,0.48369 0.0744,0.13643 0.21084,0.33486 0.14882,0.18604 0.32246,0.26045 0.17363,0.0744 0.44648,0.13643 0.28526,0.0496 0.68213,0.0496 0.66973,0 1.5999,-0.32246 0.94258,-0.32246 1.68672,-0.86817 0.75654,-0.5457 0.81856,-1.079 0,-0.0248 0,-0.0372 0,-0.26045 -0.34727,-0.47129 -0.34726,-0.22324 -0.97978,-0.39687 -0.63252,-0.17363 -1.30225,-0.32246 -0.66973,-0.16123 -1.5627,-0.37207 -0.89296,-0.21084 -1.52548,-0.40928 -1.52549,-0.49609 -2.0836,-1.079 -0.5457,-0.59532 -0.5457,-1.69913 0,-2.07119 2.34404,-3.23701 2.34405,-1.16582 6.8461,-1.16582 0.19843,0.0248 0.33486,0.13643 0.28525,0.24805 0.5085,1.02939 0.23564,0.78135 0.31005,1.28985 0.0868,0.49609 0.0992,0.71933 0.0248,0.22325 0.0248,0.35967 0,1.0418 -0.83096,1.28984 -0.23564,0.0744 -0.44648,0.0744 -0.44649,0 -0.80616,-0.26045 -0.35966,-0.27285 -0.48369,-0.58291 -0.34726,-0.76895 -0.5457,-1.48828 -1.0542,0.0124 -2.04639,0.23564 -0.99219,0.21084 -1.68672,0.62012 -0.68213,0.40928 -0.68213,0.89297 0,0.062 0.0124,0.0868 0,0.0248 0.0124,0.0496 0.22324,0.43409 2.49287,0.86817 0.79375,0.16123 1.43867,0.32246 0.64492,0.14883 1.33946,0.38447 0.70693,0.22324 1.22783,0.5085 0.5209,0.28525 0.94258,0.63252 0.43408,0.34726 0.65732,0.80615 0.22324,0.45889 0.22324,0.99219 0,0.16123 -0.0248,0.34726 -0.18604,1.47588 -1.24024,2.57969 -1.0542,1.09141 -2.6417,1.63711 -1.57509,0.5457 -3.46025,0.5457 -0.74414,0 -1.45107,-0.16123 -0.69454,-0.16123 -1.32706,-0.48369 -0.62011,-0.31006 -1.079,-0.84336 -0.44648,-0.5457 -0.63252,-1.24023 z m 17.04082,0.83095 q -0.0248,0.58291 -0.17363,1.00459 -0.14883,0.40928 -0.38447,0.60772 -0.23565,0.19844 -0.45889,0.27285 -0.22324,0.0868 -0.47129,0.0868 -0.0496,0 -0.17363,0 -0.5333,-0.0248 -0.95498,-0.37207 -0.42168,-0.33487 -0.42168,-1.017 0,-0.0744 0,-0.16123 0.17363,-2.05879 0.17363,-8.55761 0,-1.94717 -0.0248,-5.04776 -0.0124,-3.11299 -0.0124,-3.84472 0,-0.73174 0.45888,-1.10381 0.45889,-0.37207 1.10381,-0.37207 0.60772,0 1.00459,0.35967 0.40928,0.35966 0.40928,1.0914 0,3.08819 -0.14883,9.89707 1.0418,-0.93017 2.33164,-2.02158 1.28985,-1.09141 2.15801,-1.82314 0.88057,-0.73174 1.11621,-0.95498 0.59531,-0.57051 1.16582,-0.57051 0.47129,0 0.81855,0.35967 0.33487,0.33486 0.33487,0.78134 0,0.55811 -0.5457,1.19063 -0.4961,0.5581 -3.55948,3.1626 0.55811,0.93017 1.82315,2.53007 1.27744,1.59991 2.25722,2.82774 0.97979,1.22783 1.0418,1.50068 0.0124,0.0248 0.0124,0.062 0.0124,0.0992 0.0124,0.17364 0,0.80615 -0.66973,1.24023 -0.39688,0.65732 -0.76895,0.65732 -0.66972,0 -1.19062,-1.15341 -0.11162,-0.14883 -1.11621,-1.36426 -1.00459,-1.21543 -1.99678,-2.57969 -0.99219,-1.36426 -1.43867,-2.33164 l -1.86035,1.63711 q -0.0868,0.0868 -0.18604,0.0868 l 0.19844,-0.19844 q -0.0124,0.14883 -0.0124,0.31006 0,0.78135 0.0744,1.87275 0.0744,1.07901 0.0744,1.42627 0,0.14883 0,0.33486 z m 14.08907,8.25997 q -0.18603,0.5457 -0.5333,0.88056 -0.34727,0.33486 -0.71934,0.33486 -0.42168,0 -0.79375,-0.68212 -0.63252,-0.5085 -0.63252,-1.21543 0,-0.37207 0.19844,-0.75655 l 3.24942,-6.20117 q -3.11299,-5.74228 -4.7501,-10.0459 -0.18604,-0.49609 -0.18604,-0.94257 0,-0.53331 0.24805,-0.85577 0.24805,-0.32246 0.58291,-0.47129 0.31006,-0.16123 0.66973,-0.16123 0.49609,0 0.90537,0.34727 0.42168,0.34727 0.63252,1.0542 0.39687,1.30224 1.04179,2.90215 0.64493,1.5999 1.15342,2.69131 0.5085,1.0914 1.25264,2.6541 2.55488,-5.15938 3.80752,-8.42119 0.26045,-0.66973 0.65732,-1.00459 0.40928,-0.34727 0.89297,-0.34727 0.32246,0 0.57051,0.12402 0.34726,0.16123 0.60771,0.5333 0.26045,0.35967 0.26045,0.86817 0,0.43408 -0.19843,0.90537 -0.23565,0.5333 -0.5085,1.14102 -0.27285,0.60771 -0.68213,1.43867 -0.39687,0.81855 -0.71934,1.46347 -0.31005,0.64493 -0.89296,1.81075 -0.58291,1.16582 -0.94258,1.88515 -0.35967,0.70694 -1.14102,2.23242 -0.78135,1.52549 -1.19062,2.30684 -0.40928,0.79375 -1.38907,2.69131 -0.97978,1.90996 -1.45107,2.84014 z"
         id="text3"
         style="font-size:25.4px;font-family:'Comic Mono';-inkscape-font-specification:'Comic Mono';fill:#ffffff;fill-opacity:1;stroke:#66d9ff;stroke-width:4;stroke-linecap:round;stroke-linejoin:round;stroke-dasharray:none;stroke-opacity:1;paint-order:stroke markers fill"
         aria-label="iointhesky" />
      <path
         id="path1"
         style="fill:#66d9ff;fill-opacity:1;stroke-width:0.197816"
         d="m 23.789246,113.39566 c -3.427271,-0.0667 -8.165554,1.57551 -14.8616256,5.76244 l 12.5361856,3.90416 c 0,0 0.644809,-3.41542 9.827307,18.22007 9.415549,22.18459 21.558997,-12.67388 15.636255,-3.65507 -8.302429,12.64247 -7.645434,5.09007 -10.202478,-0.0584 -0.08404,-0.16921 -0.159178,-0.35015 -0.238745,-0.52503 2.332118,2.14087 5.441124,3.34989 8.858374,0.25425 4.990702,-4.52099 0.211391,-5.35727 -4.072103,-5.45445 16.220279,-6.75879 2.649224,-37.051765 -1.909801,-12.41271 -0.503522,2.72126 -5.524759,2.59412 -6.484518,4.1543 -1.427777,-5.50814 -3.545817,-10.08175 -9.088851,-10.18956 z"
         sodipodi:nodetypes="sccssscscscs" />
      <path
         style="fill:#ffcd33;fill-opacity:1;stroke:none;stroke-width:4;stroke-linecap:round;stroke-linejoin:round;stroke-dasharray:none;stroke-opacity:1;paint-order:stroke markers fill"
         d="m 21.02751,109.22344 c 0,0 -3.809978,15.38233 7.745762,10.10246 4.647456,-2.12345 1.000991,-9.18015 -0.524329,-6.60628 -4.519967,7.62714 -7.221433,-3.49618 -7.221433,-3.49618 z"
         id="path3"
         sodipodi:nodetypes="cssc" />
      <ellipse
         style="fill:#000000;fill-opacity:1;stroke:none;stroke-width:4;stroke-linecap:round;stroke-linejoin:round;stroke-dasharray:none;stroke-opacity:1;paint-order:stroke markers fill"
         id="path4"
         cx="18.250952"
         cy="118.42505"
         rx="0.5839113"
         ry="1.4156311" />
    </g>
  </g>
</svg>
